
<?xml version="1.0" encoding="UTF-8" standalone="no"?>
<!DOCTYPE svg PUBLIC "-//W3C//DTD SVG 20010904//EN"
 "http://www.w3.org/TR/2001/REC-SVG-20010904/DTD/svg10.dtd">
<svg version="1.0" xmlns="http://www.w3.org/2000/svg"
 width="472.000000pt" height="472.000000pt" viewBox="0 0 472.000000 472.000000"
 preserveAspectRatio="xMidYMid meet">
<metadata>
Created by potrace 1.15, written by Peter Selinger 2001-2017
</metadata>
<g transform="translate(0.000000,472.000000) scale(0.100000,-0.100000)"
fill="#000000" stroke="none">
<path d="M560 4680 c0 -22 5 -40 10 -40 6 0 15 -11 22 -25 6 -13 15 -22 19
-19 5 3 6 -1 3 -9 -3 -8 0 -18 7 -23 7 -4 15 -2 17 4 6 19 21 14 47 -15 30
-35 30 -35 -1 -67 -23 -22 -25 -28 -13 -43 10 -15 10 -16 0 -6 -10 9 -24 3
-64 -25 l-51 -36 -154 -8 c-116 -5 -170 -12 -220 -29 -127 -41 -124 -59 11
-56 113 2 126 -6 68 -45 -50 -33 -49 -44 6 -55 36 -6 58 -5 85 5 73 28 96 -16
26 -48 -24 -11 -57 -20 -75 -20 -40 0 -102 -48 -81 -62 9 -7 8 -8 -5 -4 -11 4
-29 -2 -45 -14 -33 -26 -44 -14 -36 38 4 29 12 43 26 48 11 3 17 8 14 11 -5 5
-63 -17 -143 -54 l-33 -15 0 -874 0 -873 21 -11 c11 -7 42 -18 67 -26 45 -13
142 -92 142 -115 0 -14 20 -11 21 4 0 6 5 1 10 -12 6 -15 15 -21 24 -17 8 3
14 0 12 -7 -1 -8 12 -12 39 -12 39 -1 84 -24 114 -59 7 -9 16 -13 21 -10 5 3
6 -2 3 -10 -3 -9 3 -32 15 -51 29 -49 26 -74 -10 -125 -24 -33 -27 -41 -13
-35 11 4 46 10 78 13 48 4 58 2 54 -10 -4 -10 2 -13 26 -10 24 2 44 -7 91 -42
59 -45 83 -57 69 -35 -5 8 -1 8 14 0 11 -6 44 -11 73 -12 30 -1 70 -10 89 -19
19 -10 50 -21 68 -25 18 -4 36 -13 39 -21 5 -15 58 -44 80 -44 7 0 13 -5 13
-10 0 -6 11 -15 24 -21 32 -15 42 -66 22 -112 l-14 -35 -179 -6 c-98 -4 -225
-11 -283 -16 -58 -6 -141 -10 -186 -10 -44 0 -127 -4 -185 -10 -57 -5 -161
-12 -231 -16 l-128 -6 0 -694 0 -694 888 2 887 3 -1 25 c-1 22 -48 261 -113
570 -11 52 -43 210 -70 350 -54 276 -63 304 -114 372 l-35 45 54 42 c30 23 52
47 49 52 -3 5 0 7 7 4 7 -3 29 8 48 25 19 16 39 30 44 30 4 0 6 7 3 14 -4 10
-1 13 7 10 7 -3 24 5 37 16 13 12 19 19 12 16 -6 -4 -14 -2 -18 3 -3 6 3 8 14
6 24 -4 64 23 55 37 -4 6 -3 8 3 5 14 -9 55 22 47 36 -4 7 -4 9 1 5 10 -10 37
6 112 64 67 53 104 68 170 68 38 0 43 -3 44 -22 1 -13 1 -27 -1 -33 -4 -21 12
-75 20 -70 6 3 7 -1 4 -9 -3 -9 -1 -16 6 -16 6 0 8 -4 5 -10 -3 -5 1 -10 10
-10 11 0 15 5 12 15 -4 8 -1 17 5 21 7 5 8 2 3 -6 -6 -9 -4 -11 4 -5 27 16 40
73 42 180 l2 109 -39 11 c-42 13 -154 67 -227 110 -26 14 -51 24 -57 20 -6 -4
-9 -1 -8 7 2 7 -5 12 -14 12 -10 -1 -16 2 -13 6 3 4 -6 15 -20 24 -14 9 -25
14 -25 12 0 -3 -12 6 -26 19 -31 29 -53 34 -33 8 13 -16 12 -17 -3 -5 -10 8
-17 17 -16 20 4 21 -20 74 -53 118 -44 57 -79 132 -135 284 -21 58 -42 107
-46 108 -20 9 -78 80 -99 121 -30 59 -39 184 -16 227 21 41 47 67 80 82 35 15
37 15 37 -2 0 -8 5 -16 11 -18 5 -2 19 -46 29 -98 10 -52 25 -115 33 -140 l15
-45 1 76 c1 76 1 76 26 71 25 -4 25 -5 25 -119 0 -100 3 -120 21 -149 36 -59
40 -60 343 -54 l276 5 26 26 c23 24 26 36 31 125 l6 99 46 3 c25 1 61 0 79 -3
l32 -6 0 -85 c0 -56 5 -95 15 -114 29 -56 50 -60 316 -60 259 0 302 6 341 47
22 23 23 33 23 154 0 126 1 129 22 129 24 0 37 27 27 54 -6 14 -40 16 -342 16
l-335 0 -38 -40 -38 -40 -81 0 c-44 0 -80 4 -80 9 0 5 -13 23 -29 40 l-29 31
-341 0 -341 0 0 118 c1 270 32 395 109 425 133 54 487 34 606 -34 81 -45 122
-47 202 -10 101 48 181 61 364 61 179 0 236 -11 281 -53 89 -86 130 -325 106
-624 -7 -90 -10 -163 -6 -163 11 0 47 105 57 172 6 35 13 93 16 131 5 48 11
67 21 67 8 0 14 3 14 8 1 61 73 332 89 332 3 0 33 -16 66 -36 42 -26 73 -37
107 -38 47 -3 55 3 49 37 -1 5 3 6 8 2 6 -3 16 14 22 37 15 51 18 56 27 42 11
-15 112 -60 165 -73 26 -6 78 -11 115 -12 37 0 102 -4 144 -7 42 -4 90 -4 106
0 40 11 87 87 104 168 19 93 16 95 -133 96 -174 1 -169 0 -225 37 l-50 32 -1
75 c-1 85 -10 94 -63 61 -25 -15 -38 -17 -58 -10 -18 7 -28 6 -34 -3 -13 -21
-10 -29 27 -64 l36 -33 -25 -7 c-17 -4 -26 -14 -28 -32 -2 -21 -9 -28 -30 -30
-22 -3 -30 2 -40 22 -6 14 -14 26 -18 26 -4 0 -13 13 -20 30 -7 16 -17 27 -23
23 -6 -4 -7 -1 -2 6 4 7 -1 22 -13 34 -11 12 -23 34 -26 50 -3 15 -8 38 -11
52 -4 18 -15 27 -43 35 -20 5 -52 24 -71 42 -65 61 -161 118 -161 96 0 -9 -3
-8 -10 2 -13 20 -13 -1 0 -35 5 -14 15 -23 20 -20 6 4 9 3 8 -2 -6 -17 50 -72
99 -96 40 -21 133 -105 133 -121 0 -6 -28 -1 -36 7 -15 15 -34 6 -34 -16 0
-12 -7 -32 -15 -43 -8 -12 -12 -24 -10 -28 3 -3 2 -4 -2 -1 -3 3 -12 0 -19 -6
-23 -19 -26 10 -4 38 l20 26 -21 23 c-12 13 -26 21 -32 17 -6 -4 -7 -1 -2 6 4
8 -1 18 -14 27 -11 8 -33 36 -48 62 -44 76 -115 152 -141 152 -11 0 -13 -8 -7
-37 5 -30 4 -35 -7 -26 -7 5 -27 13 -45 16 -30 6 -32 4 -35 -26 -3 -31 -4 -32
-46 -29 -52 3 -138 45 -208 99 -27 22 -80 58 -118 81 l-70 42 40 0 c37 1 38 2
19 16 -11 8 -25 12 -33 9 -7 -2 -10 0 -7 5 3 6 1 10 -4 10 -6 0 -11 7 -11 15
0 15 5 16 65 20 80 5 174 52 158 78 -3 6 -1 7 4 4 6 -4 18 2 28 13 10 11 21
17 26 14 17 -10 48 16 51 43 3 24 9 29 56 39 62 14 72 21 52 35 -13 9 -12 10
2 6 9 -3 24 3 34 14 21 23 33 24 49 2 11 -15 17 -16 53 -4 47 16 105 9 128
-13 20 -21 31 -20 61 4 20 15 41 20 89 20 52 0 67 4 84 22 11 12 20 34 20 49
0 43 10 62 26 48 8 -6 21 -9 29 -5 9 3 13 2 10 -4 -9 -14 9 -12 23 2 32 32 14
38 -108 38 -104 0 -120 -2 -128 -17 -5 -10 -7 -23 -5 -30 2 -6 -1 -14 -6 -18
-7 -4 -8 0 -5 10 5 11 -9 5 -39 -16 -42 -29 -50 -32 -84 -23 -37 9 -41 15 -59
81 -3 10 -299 13 -1399 13 l-1395 0 0 -40z m1465 -1720 c-30 -58 -12 -155 34
-180 77 -41 144 63 108 168 l-15 42 63 0 c92 0 95 -5 95 -149 0 -88 -4 -121
-14 -130 -9 -8 -95 -11 -277 -11 -321 -1 -299 -11 -299 148 0 146 -5 142 177
142 l144 0 -16 -30z m699 -5 c-41 -99 23 -212 101 -177 49 22 71 126 41 185
l-15 27 144 0 c151 0 174 -6 176 -48 6 -153 4 -199 -8 -219 -13 -23 -14 -23
-283 -23 -323 0 -300 -11 -300 145 0 133 8 145 95 145 l64 0 -15 -35z"/>
<path d="M4291 3305 c2 -5 17 -35 34 -65 16 -30 66 -138 111 -240 45 -103 86
-184 92 -182 7 1 11 -1 10 -5 -5 -18 16 -60 45 -90 25 -27 33 -30 46 -21 13
10 14 10 4 -1 -9 -10 -1 -27 34 -75 25 -33 47 -63 49 -65 2 -2 3 45 3 104 0
114 -2 119 -63 197 -16 21 -33 35 -38 32 -5 -3 -7 -2 -6 3 3 13 -88 194 -94
187 -4 -3 -5 2 -2 13 5 20 -89 147 -100 135 -4 -3 -4 1 -1 10 4 10 -2 22 -17
32 -25 18 -53 22 -43 6 9 -14 -26 -1 -49 19 -10 9 -17 12 -15 6z"/>
<path d="M2020 3126 c-56 -16 -120 -46 -120 -56 0 -11 321 -18 343 -8 22 11
22 41 -1 61 -23 21 -152 22 -222 3z"/>
<path d="M2648 3126 c-10 -7 -18 -23 -18 -34 0 -12 8 -25 18 -30 21 -10 342
-3 342 8 0 11 -62 39 -126 56 -69 18 -193 18 -216 0z"/>
<path d="M2965 2102 c-44 -26 -119 -66 -167 -87 -48 -21 -84 -43 -81 -48 3 -6
1 -7 -5 -3 -6 4 -23 4 -37 0 -25 -6 -25 -7 -25 -115 0 -112 12 -162 47 -201
17 -19 39 -25 28 -8 -3 6 -2 10 3 10 12 0 32 70 32 113 0 55 38 59 140 14 25
-11 48 -20 53 -19 4 1 7 -2 7 -6 0 -4 24 -26 53 -47 28 -22 54 -42 57 -45 21
-25 105 -78 113 -73 5 3 7 1 3 -5 -3 -6 26 -35 71 -68 43 -32 99 -75 124 -96
46 -37 47 -37 52 -16 8 32 -5 84 -37 142 -14 27 -26 56 -26 65 0 26 -65 116
-81 113 -8 -2 -11 0 -7 4 4 4 -5 22 -21 40 -25 28 -28 38 -22 66 4 18 13 43
19 55 17 31 14 102 -6 143 -20 40 -74 71 -113 63 -16 -3 -30 1 -38 11 -7 9
-17 14 -21 11 -4 -3 -7 3 -6 12 2 31 -28 24 -109 -25z"/>
<path d="M4689 1727 c-15 -18 -41 -54 -59 -80 -37 -56 -37 -77 3 -222 35 -128
44 -240 22 -305 -14 -42 -26 -57 -73 -90 -80 -55 -94 -69 -134 -127 -36 -53
-57 -121 -40 -132 5 -3 11 -32 14 -63 4 -49 2 -58 -12 -58 -21 0 -63 -44 -53
-55 5 -4 3 -5 -3 -2 -16 9 -29 -9 -73 -100 -23 -46 -49 -86 -65 -96 -15 -10
-24 -22 -21 -27 5 -8 -12 -25 -27 -25 -16 0 -118 -107 -112 -117 4 -6 3 -8 -3
-5 -14 9 -55 -22 -46 -36 5 -8 2 -8 -9 0 -12 10 -23 9 -56 -5 -38 -16 -42 -21
-47 -62 -3 -25 -10 -62 -14 -82 l-9 -38 424 0 424 0 0 880 c0 484 -1 880 -2
879 -2 0 -15 -15 -29 -32z"/>
<path d="M2265 1389 c-10 -15 5 -140 16 -134 5 4 9 -5 9 -18 0 -16 15 -39 45
-66 50 -46 52 -53 31 -166 -8 -43 -17 -69 -24 -67 -15 3 -16 -10 -2 -24 7 -7
7 -37 0 -89 -16 -131 -49 -561 -53 -697 l-5 -128 164 0 164 0 -5 73 c-3 39
-10 151 -15 247 -9 185 -34 459 -50 572 -6 37 -10 83 -10 102 0 20 -3 36 -7
36 -5 0 -9 22 -11 49 -2 44 1 51 28 74 16 14 30 30 30 36 0 6 4 11 8 11 18 0
45 81 46 137 l1 58 -177 3 c-120 2 -179 -1 -183 -9z"/>
<path d="M2640 705 l0 -85 240 0 240 0 0 85 0 85 -240 0 -240 0 0 -85z"/>
</g>
</svg>
